<svg xmlns="http://www.w3.org/2000/svg" width="26.418" height="26.505" viewBox="0 0 26.418 26.505">
  <g id="Group_34249" data-name="Group 34249" transform="translate(1384.594 -1530.163)">
    <path id="Path_63043" data-name="Path 63043" d="M-1371.408,1555.838c-1.6,0-3.2.022-4.8,0a7.863,7.863,0,0,1-7.537-6.741,10.237,10.237,0,0,1-.092-1.3q-.012-4.487,0-8.974a7.815,7.815,0,0,1,6.9-7.781c1.873-.191,3.776-.1,5.666-.114a8.029,8.029,0,0,1,7.241,4.955,16.813,16.813,0,0,1,.537,2.646c.012.063.008.129.018.193.213,1.3.561,1.6,1.893,1.629.5.012,1,.072,1.5.077a1.248,1.248,0,0,1,1.159,1.26c-.024,2.392.025,4.788-.114,7.173a7.715,7.715,0,0,1-6.509,6.854c-1.937.2-3.9.135-5.857.189Zm.027-6.542c1.406,0,2.813,0,4.219,0a2.285,2.285,0,0,0,.713-.09,1.437,1.437,0,0,0,.945-1.521,1.5,1.5,0,0,0-1.545-1.261q-4.292-.006-8.583,0a1.488,1.488,0,0,0-1.639,1.462,1.454,1.454,0,0,0,1.624,1.413C-1374.226,1549.3-1372.8,1549.3-1371.381,1549.3Zm-2.193-11.829c-.743,0-1.486-.01-2.229,0a1.428,1.428,0,0,0-1.469,1.418,1.452,1.452,0,0,0,1.489,1.455q2.156.013,4.313,0a1.419,1.419,0,0,0,1.458-1.427,1.4,1.4,0,0,0-1.43-1.444C-1372.152,1537.456-1372.863,1537.468-1373.574,1537.467Z" transform="translate(0)" fill="none" stroke="#fff" stroke-width="1.5"/>
  </g>
</svg>
