<svg xmlns="http://www.w3.org/2000/svg" width="12.864" height="25.827" viewBox="0 0 12.864 25.827">
  <g id="Group_29545" data-name="Group 29545" transform="translate(0.75 0.749)">
    <path id="Path_1497" data-name="Path 1497" d="M-165.848-.5V3.655h-.384c-.763,0-1.526,0-2.289,0a.978.978,0,0,0-1.095.98c-.036.89-.009,1.782-.009,2.709h3.849l-.442,4.3h-3.407V23.8h-5.063V11.659h-2.386V7.353h2.384c0-.136,0-.244,0-.352.01-1-.035-2.013.042-3.012A4.578,4.578,0,0,1-172.379.115a4.973,4.973,0,0,1,2.431-.635c1.33-.024,2.661,0,3.991,0a.709.709,0,0,1,.109.022" transform="translate(177.074 0.531)" fill="none" stroke="#fff" stroke-linecap="round" stroke-linejoin="round" stroke-width="1.5"/>
  </g>
</svg>
