<svg xmlns="http://www.w3.org/2000/svg" width="27.463" height="24.672" viewBox="0 0 27.463 24.672">
  <g id="cvjG3N" transform="translate(0)">
    <g id="Group_1511" data-name="Group 1511" transform="translate(0 0)">
      <path id="Path_1506" data-name="Path 1506" d="M7324.543,7134.427c-.915.836-1.775,1.621-2.635,2.4-1.345,1.219-2.579.93-3.169-.8-.653-1.931-1.237-3.886-1.811-5.838a1.2,1.2,0,0,0-.89-.909c-1.42-.439-2.828-.933-4.237-1.417a3.99,3.99,0,0,1-.779-.341,1.906,1.906,0,0,1,.119-3.533c1.116-.557,2.29-1,3.444-1.483q9.7-4.086,19.395-8.159c.161-.068.321-.144.487-.2a2.033,2.033,0,0,1,2.831,2.427q-1.307,6.781-2.643,13.555c-.418,2.151-.856,4.3-1.269,6.453a2.511,2.511,0,0,1-3.984,1.564C7327.786,7136.933,7326.19,7135.692,7324.543,7134.427Zm-3.862.623c1.328-1.2,2.54-2.3,3.748-3.4,1.8,1.383,3.543,2.719,5.286,4.057.312.238.624.488.954.7.3.188.547.15.62-.256.028-.174.078-.341.113-.517q1.634-8.355,3.267-16.709c.17-.884.328-1.775.512-2.784-7.686,3.239-15.22,6.415-22.885,9.642,1.959.665,3.771,1.266,5.569,1.895a1.186,1.186,0,0,0,1.149-.148q5.919-3.7,11.865-7.349a3.665,3.665,0,0,1,.991-.277,3.406,3.406,0,0,1-.506.885q-4.7,4.427-9.437,8.823a1.42,1.42,0,0,0-.493.665C7321.163,7131.806,7320.942,7133.344,7320.681,7135.05Z" transform="translate(-7309.889 -7113.986)" fill="#fff"/>
    </g>
  </g>
</svg>
