<svg xmlns="http://www.w3.org/2000/svg" width="37.583" height="26.487" viewBox="0 0 37.583 26.487">
  <g id="Group_34248" data-name="Group 34248" transform="translate(1911.159 -1432.644)">
    <path id="Path_63042" data-name="Path 63042" d="M-1892.223,1458.381c-1.987-.02-3.671-.026-5.355-.057-1.255-.023-2.51-.062-3.762-.127-1.1-.057-2.2-.143-3.3-.245a7.031,7.031,0,0,1-2.328-.52,4.675,4.675,0,0,1-2.692-2.789,10.765,10.765,0,0,1-.393-1.918,60.637,60.637,0,0,1-.337-8.89c.015-1.006.081-2.011.15-3.015a19.67,19.67,0,0,1,.5-3.469,4.116,4.116,0,0,1,1.226-2.005,5.025,5.025,0,0,1,2.862-1.385c1.028-.13,2.059-.24,3.092-.311,1.174-.081,2.351-.118,3.528-.161,2.892-.1,5.785-.108,8.677-.083,1.5.013,3.006.049,4.508.094,1.171.035,2.343.082,3.513.155,1.189.074,2.376.167,3.554.359a4.513,4.513,0,0,1,3.766,3.545,19.063,19.063,0,0,1,.432,2.871c.1,1.416.206,2.832.243,4.249.035,1.336.014,2.675-.04,4.01-.048,1.185-.148,2.369-.278,3.547a16.921,16.921,0,0,1-.412,2.246,4.272,4.272,0,0,1-1.783,2.434,4.969,4.969,0,0,1-2.417.917c-1.154.12-2.309.242-3.466.31-1.386.083-2.775.127-4.164.158C-1888.776,1458.344-1890.651,1458.359-1892.223,1458.381Zm-3.615-18.063v11.126l9.036-5.563Z" transform="translate(0)" fill="none" stroke="#fff" stroke-width="1.5"/>
  </g>
</svg>
