<svg xmlns="http://www.w3.org/2000/svg" width="155.849" height="38.913" viewBox="0 0 155.849 38.913">
  <g id="Group_29082" data-name="Group 29082" transform="translate(-178 -49.788)">
    <g id="Group_34101" data-name="Group 34101" transform="translate(178 49.788)">
      <g id="Group_28877" data-name="Group 28877" transform="translate(0 1.846)">
        <path id="Path_59382" data-name="Path 59382" d="M0,6.9c5.752-.034,11.47-.071,17.213-.1.034,5.741.071,11.467.1,17.216-5.729.034-11.456.071-17.213.1Q.054,15.527,0,6.9Z" transform="translate(0 -6.718)" fill="#00bf91"/>
        <path id="Path_59383" data-name="Path 59383" d="M.43,75.495l17.2-.1a1.424,1.424,0,0,1,.031.2c.014,2.964.113,5.933.02,8.895a8.16,8.16,0,0,1-4.91,7.417,7.583,7.583,0,0,1-3.31.777c-2.921.04-5.843.043-8.764.062-.045,0-.088-.006-.162-.011C.5,86.99.464,81.258.43,75.495Z" transform="translate(-0.308 -55.854)" fill="#f6bc45"/>
        <path id="Path_59384" data-name="Path 59384" d="M67.9,23.8c-.034-5.749-.071-11.467-.1-17.233.128,0,.244,0,.36,0q4.165-.026,8.333-.051a8.571,8.571,0,0,1,8.517,7.2,7.972,7.972,0,0,1,.094,1.194q.038,4.25.057,8.5c0,.088-.006.176-.011.286C79.4,23.726,73.668,23.76,67.9,23.8Z" transform="translate(-48.57 -6.51)" fill="#055df3"/>
        <path id="Path_59385" data-name="Path 59385" d="M96.026,74.934c.034,5.758.071,11.481.1,17.245-.136,0-.255,0-.374,0l-4.067.026a8.4,8.4,0,0,1-8.546-6.935,8.476,8.476,0,0,1,8.013-10.307c1.543-.054,3.089-.034,4.632-.045C95.859,74.92,95.924,74.929,96.026,74.934Z" transform="translate(-59.438 -55.517)" fill="#eb3d66"/>
      </g>
      <g id="Group_29015" data-name="Group 29015" transform="translate(49.52)">
        <g id="Group_29015-2" data-name="Group 29015">
          <path id="Path_59452" data-name="Path 59452" d="M26.907,47.659a11.549,11.549,0,0,0-19.283-8.2V39A2.563,2.563,0,0,0,5.061,36.44H0V64.822H7.627V46.83a6.45,6.45,0,0,1,11.665,3.8V64.822h7.624V47.659Z" transform="translate(0 -26.166)" fill="#fff"/>
          <path id="Path_59453" data-name="Path 59453" d="M355.124,36.44H350.06V64.822h7.627V39A2.563,2.563,0,0,0,355.124,36.44Z" transform="translate(-251.358 -26.166)" fill="#fff"/>
          <path id="Path_59454" data-name="Path 59454" d="M128.718,36.59a14.3,14.3,0,1,0,14.3,14.3A14.3,14.3,0,0,0,128.718,36.59Zm0,20.9a6.6,6.6,0,1,1,6.6-6.6A6.6,6.6,0,0,1,128.718,57.489Z" transform="translate(-82.158 -26.273)" fill="#fff"/>
          <path id="Path_59455" data-name="Path 59455" d="M261.039,24.531a14.167,14.167,0,0,0-20.715-12.567V2.623A2.563,2.563,0,0,0,237.761.06H232.7V38.7H247v0A14.167,14.167,0,0,0,261.039,24.531Zm-14.171,6.541h-6.544V24.531h0a6.541,6.541,0,1,1,6.541,6.541Z" transform="translate(-167.089 -0.043)" fill="#fff"/>
          <path id="Path_59457" data-name="Path 59457" d="M355.124,0H350.06V7.8h7.627V2.563A2.563,2.563,0,0,0,355.124,0Z" transform="translate(-251.358)" fill="#fff"/>
        </g>
      </g>
    </g>
  </g>
</svg>
