<svg id="Group_29546" data-name="Group 29546" xmlns="http://www.w3.org/2000/svg" width="24.988" height="24.988" viewBox="0 0 24.988 24.988">
  <path id="Path_54863" data-name="Path 54863" d="M16.573,6.33c3.336,0,3.731.013,5.049.073a6.915,6.915,0,0,1,2.32.43A4.138,4.138,0,0,1,26.313,9.2a6.915,6.915,0,0,1,.43,2.32c.06,1.317.073,1.713.073,5.049s-.013,3.731-.073,5.049a6.915,6.915,0,0,1-.43,2.32,4.138,4.138,0,0,1-2.371,2.371,6.915,6.915,0,0,1-2.32.43c-1.317.06-1.712.073-5.049.073s-3.731-.013-5.049-.073a6.915,6.915,0,0,1-2.32-.43,4.138,4.138,0,0,1-2.371-2.371,6.915,6.915,0,0,1-.43-2.32c-.06-1.317-.073-1.713-.073-5.049s.013-3.731.073-5.049a6.915,6.915,0,0,1,.43-2.32A4.138,4.138,0,0,1,9.2,6.833a6.915,6.915,0,0,1,2.32-.43c1.317-.06,1.713-.073,5.049-.073m0-2.251c-3.393,0-3.819.014-5.151.075a9.171,9.171,0,0,0-3.033.581A6.389,6.389,0,0,0,4.735,8.389a9.171,9.171,0,0,0-.581,3.033c-.061,1.333-.075,1.758-.075,5.151s.014,3.819.075,5.151a9.171,9.171,0,0,0,.581,3.033,6.389,6.389,0,0,0,3.654,3.654,9.171,9.171,0,0,0,3.033.581c1.333.061,1.758.075,5.151.075s3.819-.014,5.151-.075a9.171,9.171,0,0,0,3.033-.581,6.389,6.389,0,0,0,3.654-3.654,9.171,9.171,0,0,0,.581-3.033c.061-1.333.075-1.758.075-5.151s-.014-3.819-.075-5.151a9.171,9.171,0,0,0-.581-3.033,6.389,6.389,0,0,0-3.654-3.654,9.171,9.171,0,0,0-3.033-.581c-1.333-.061-1.758-.075-5.151-.075Z" transform="translate(-4.079 -4.079)" fill="#fff"/>
  <path id="Path_54864" data-name="Path 54864" d="M133.051,126.635a6.416,6.416,0,1,0,6.416,6.416A6.416,6.416,0,0,0,133.051,126.635Zm0,10.58a4.165,4.165,0,1,1,4.165-4.165A4.165,4.165,0,0,1,133.051,137.215Z" transform="translate(-120.557 -120.557)" fill="#fff"/>
  <circle id="Ellipse_1159" data-name="Ellipse 1159" cx="1.499" cy="1.499" r="1.499" transform="translate(17.664 4.325)" fill="#fff"/>
</svg>
