<svg xmlns="http://www.w3.org/2000/svg" width="31.065" height="25.619" viewBox="0 0 31.065 25.619">
  <g id="Group_29544" data-name="Group 29544" transform="translate(13.75 0.754)">
    <path id="Path_1498" data-name="Path 1498" d="M-213.71-110.488c-.027-.612-.1-1.18-.07-1.744a5.767,5.767,0,0,1,1.9-4.081,5.938,5.938,0,0,1,5.416-1.524,5.644,5.644,0,0,1,3.019,1.629.353.353,0,0,0,.374.115,12.511,12.511,0,0,0,3.42-1.3c.054-.03.112-.053.227-.108a6.3,6.3,0,0,1-2.506,3.278,10.8,10.8,0,0,0,3.32-.881,10.766,10.766,0,0,1-1.6,1.924c-.4.372-.817.719-1.237,1.064a.445.445,0,0,0-.182.4,16.55,16.55,0,0,1-.627,5.156,18.221,18.221,0,0,1-1.725,4.12,17.45,17.45,0,0,1-3.2,4.087,16.112,16.112,0,0,1-5.055,3.241,17.374,17.374,0,0,1-5.953,1.243,17.488,17.488,0,0,1-4.291-.345,16.2,16.2,0,0,1-4.1-1.43c-.537-.279-1.068-.572-1.6-.892a12.5,12.5,0,0,0,8.887-2.549,6.23,6.23,0,0,1-5.68-4.251,6.072,6.072,0,0,0,2.639-.105,6.268,6.268,0,0,1-3.427-2.187,5.959,5.959,0,0,1-1.318-3.848,6.146,6.146,0,0,0,2.715.725,6.107,6.107,0,0,1-2.512-3.69,6.076,6.076,0,0,1,.655-4.4,17.41,17.41,0,0,0,12.5,6.353" transform="translate(215.175 117.967)" fill="none" stroke="#fff" stroke-linecap="round" stroke-linejoin="round" stroke-width="1.5"/>
  </g>
</svg>
